# xmcd
#
# Track frame offsets:
#	150
#	32089
#	85873
#	143767
#	167867
#	198416
#
# Disc length: 3075 seconds
#
# Revision: 2
# Processed by: cddbd v1.5.1PL2 Copyright (c) Steve Scherf et al.
# Submitted via: EasyCDDAExtractor 8.0.2.1
#
DISCID=4a0c0106
DTITLE=Dio - Playhouse Edinburg 09-05-86 Disc 2
DYEAR=1986
DGENRE=Hard Rock
TTITLE0=Keyboard and Guitar Solo
TTITLE1=Sacred Heart
TTITLE2=Rock and Roll Children - Long Live Rock and Roll - Man On The Silver Mount
TTITLE2=ain - Rock and Roll Children Reprise
TTITLE3=Stand Up And Shout
TTITLE4=Rainbow In The Dark
TTITLE5=We Rock
EXTD=
EXTT0=
EXTT1=
EXTT2=
EXTT3=
EXTT4=
EXTT5=
PLAYORDER=
